<svg width="41" height="40" viewBox="0 0 41 40" fill="none" xmlns="http://www.w3.org/2000/svg">
<g clip-path="url(#clip0_9_21)">
<path d="M34.2354 0H5.87564C2.63578 0 0 2.6167 0 5.83311V33.9876C0 37.204 2.63578 39.8207 5.87564 39.8207H34.2354C37.4753 39.8207 40.111 37.204 40.111 33.9876V5.83311C40.111 2.6167 37.4753 0 34.2354 0ZM37.7608 33.9876C37.7608 35.9174 36.1793 37.4874 34.2354 37.4874H5.87564C3.93178 37.4874 2.35026 35.9174 2.35026 33.9876V5.83311C2.35026 3.90332 3.93178 2.33324 5.87564 2.33324H34.2354C36.1793 2.33324 37.7608 3.90332 37.7608 5.83311V33.9876Z" fill="#070707" stroke="#070707" stroke-width="0.5"/>
<path d="M18.8804 16.4105C18.8804 13.8373 16.7719 11.744 14.1799 11.744H7.12911V28.0767H14.1799C16.7719 28.0767 18.8804 25.9835 18.8804 23.4102C18.8804 22.0176 18.2619 20.7662 17.2839 19.9104C18.2619 19.0545 18.8804 17.8032 18.8804 16.4105ZM16.5301 23.4102C16.5301 24.6969 15.4759 25.7435 14.1799 25.7435H9.47937V21.077H14.1799C15.4759 21.077 16.5301 22.1236 16.5301 23.4102ZM9.47937 18.7438V14.0773H14.1799C15.4759 14.0773 16.5301 15.1239 16.5301 16.4105C16.5301 17.6971 15.4759 18.7438 14.1799 18.7438H9.47937Z" fill="#070707" stroke="#070707" stroke-width="0.5"/>
<path d="M27.1063 16.4105C23.8664 16.4105 21.2306 19.0272 21.2306 22.2436C21.2306 25.46 23.8664 28.0767 27.1063 28.0767C29.1973 28.0767 31.1473 26.9596 32.1951 25.1611L30.1607 23.9927C29.5315 25.0727 28.361 25.7435 27.1063 25.7435C25.574 25.7435 24.2673 24.7683 23.7823 23.4103H32.9819V22.2436C32.9819 19.0272 30.3462 16.4105 27.1063 16.4105ZM23.7823 21.077C24.2673 19.719 25.574 18.7438 27.1063 18.7438C28.6385 18.7438 29.9453 19.719 30.4303 21.077H23.7823Z" fill="#070707" stroke="#070707" stroke-width="0.5"/>
<path d="M22.4058 11.744H31.8068V14.0773H22.4058V11.744Z" fill="#070707" stroke="#070707" stroke-width="0.5"/>
</g>
<defs>
<clipPath id="clip0_9_21">
<rect width="40.111" height="39.8207" fill="white"/>
</clipPath>
</defs>
</svg>
