<svg width="40" height="40" viewBox="0 0 40 40" fill="none" xmlns="http://www.w3.org/2000/svg">
<path d="M30.2952 7.08903L30.6032 6.70377L30.2222 6.39059C27.3067 3.99419 23.6043 2.56298 19.5541 2.56298C18.1352 2.56298 16.7594 2.76088 15.4567 3.08509L14.7269 3.26675L15.1769 3.86943C16.5674 5.73186 18.565 8.54466 20.9573 12.95L21.164 13.3305L21.5701 13.1804C26.0972 11.5069 28.8101 8.94707 30.2952 7.08903ZM12.995 4.33915L12.7502 4.01818L12.3848 4.18975C7.88902 6.30092 4.48205 10.3338 3.13705 15.2598L2.97006 15.8714L3.60374 15.8912C6.07948 15.9688 11.9975 15.8527 18.5549 14.1038L19.1755 13.9383L18.8627 13.3773C16.3192 8.81397 14.1802 5.89348 12.995 4.33915ZM32.4487 8.57897L32.0617 8.12125L31.6808 8.58405C30.025 10.596 27.1498 13.2096 22.5972 14.983L22.0889 15.181L22.3303 15.6702C23.3118 17.6593 24.2639 19.7789 25.1314 22.068L25.2746 22.4458L25.6741 22.3851C28.9675 21.8844 32.0118 21.8844 34.3114 22.0637C34.8706 22.1099 35.2315 22.1618 35.6514 22.2222C35.7399 22.2349 35.8309 22.248 35.927 22.2615L36.4385 22.3333L36.4937 21.8197C36.5611 21.1918 36.5999 20.5612 36.5999 19.9094C36.5999 15.5742 35.0221 11.6227 32.4487 8.57897ZM20.302 16.1726L20.1168 15.8029L19.7189 15.9154C12.0054 18.097 5.2104 18.0303 3.09421 17.9453L2.61263 17.9259L2.57561 18.4065L2.57303 18.44C2.53647 18.9143 2.49893 19.4014 2.49893 19.9189C2.49893 25.1307 4.76395 29.7826 8.33507 32.9653L8.70695 33.2967L9.03977 32.9261C9.93487 31.9293 11.1354 30.6597 12.595 29.3345L12.597 29.3327C15.3431 26.8125 18.8767 24.1456 22.7259 22.9819L23.2445 22.8252L23.0468 22.3209C22.1852 20.1229 21.2575 18.0798 20.302 16.1726ZM29.792 24.0329L29.792 24.0329L29.7867 24.0331C28.7756 24.0817 27.6993 24.1787 26.6049 24.3241L26.0089 24.4032L26.1954 24.9748C27.1191 27.8057 27.8831 30.8046 28.3767 33.9241L28.5011 34.7104L29.1554 34.2569C32.3414 32.0482 34.7519 28.7657 35.8749 24.9117L36.0411 24.3413L35.4507 24.275C33.9907 24.1109 32.1395 23.9455 29.792 24.0329ZM24.1357 25.2138L23.9819 24.7618L23.5233 24.8946C20.1422 25.874 16.6053 28.4137 13.9248 30.8631C12.6296 32.0365 11.5835 33.1502 10.7441 34.0626L10.3286 34.5141L10.8547 34.8298C13.4002 36.3573 16.3558 37.2558 19.5447 37.2558C21.938 37.2558 24.1955 36.7524 26.2572 35.8654L26.6063 35.7153L26.5551 35.3387C26.0708 31.7806 25.2165 28.3895 24.1357 25.2138ZM0.5 19.9094C0.5 9.20769 9.06515 0.5 19.5541 0.5C30.0431 0.5 38.6083 9.20769 38.6083 19.9094C38.6083 30.6111 30.0431 39.3188 19.5541 39.3188C9.06515 39.3188 0.5 30.6111 0.5 19.9094Z" fill="#070707" stroke="#070707"/>
</svg>
