<svg width="40" height="40" viewBox="0 0 40 40" fill="none" xmlns="http://www.w3.org/2000/svg">
<path d="M11.3564 0.509567H11.8564V0.5H27.7612C33.7279 0.5 38.6083 5.46343 38.6083 11.56V28.2588C38.6083 34.3556 33.7276 39.3188 27.7706 39.3188H11.3564C5.38843 39.3188 0.5 34.3635 0.5 28.2779V11.5695C0.5 5.47354 5.38923 0.509567 11.3564 0.509567ZM2.50833 11.5781V11.5791V28.2875C2.50833 33.2546 6.43798 37.2661 11.3564 37.2661H27.7706C32.6717 37.2661 36.5999 33.2531 36.5999 28.2683V11.5695C36.5999 6.58441 32.6714 2.57182 27.7612 2.57182H11.3564C6.44576 2.57182 2.51826 6.58474 2.50833 11.5781ZM30.5927 7.66518C30.5927 7.08123 31.0446 6.63406 31.5968 6.63406C32.1491 6.63406 32.601 7.08123 32.601 7.66518C32.601 8.24914 32.1491 8.69631 31.5968 8.69631C31.0446 8.69631 30.5927 8.24914 30.5927 7.66518ZM9.53438 19.9142C9.53438 14.2871 14.057 9.69631 19.5635 9.69631C25.0701 9.69631 29.5927 14.2871 29.5927 19.9142C29.5927 25.5413 25.0701 30.132 19.5635 30.132C14.057 30.132 9.53438 25.5413 9.53438 19.9142ZM27.5843 19.9142C27.5843 15.3976 24.0221 11.7586 19.5635 11.7586C15.105 11.7586 11.5427 15.3976 11.5427 19.9142C11.5427 24.4308 15.105 28.0698 19.5635 28.0698C24.0221 28.0698 27.5843 24.4308 27.5843 19.9142Z" fill="#070707" stroke="#070707"/>
</svg>
