<svg width="58" height="89" viewBox="0 0 58 89" fill="none" xmlns="http://www.w3.org/2000/svg">
<g clip-path="url(#clip0_5_22)">
<path d="M14.4956 88.9906C22.4992 88.9906 28.9911 82.3509 28.9911 74.1649V59.3392H14.4956C6.49187 59.3392 0 65.979 0 74.1649C0 82.3509 6.49187 88.9906 14.4956 88.9906Z" fill="#0ACF83"/>
<path d="M0 44.4953C0 36.3093 6.49187 29.6696 14.4956 29.6696H28.9911V59.3392H14.4956C6.49187 59.321 0 52.6812 0 44.4953Z" fill="#A259FF"/>
<path d="M0 14.8257C0 6.63973 6.49187 0 14.4956 0H28.9911V29.6696H14.4956C6.49187 29.6696 0 23.0117 0 14.8257Z" fill="#F24E1E"/>
<path d="M29.0089 0H43.5044C51.5081 0 58 6.63973 58 14.8257C58 23.0117 51.5081 29.6514 43.5044 29.6514H29.0089V0Z" fill="#FF7262"/>
<path d="M58 44.4953C58 52.6812 51.5081 59.321 43.5045 59.321C35.5008 59.321 29.0089 52.6812 29.0089 44.4953C29.0089 36.3093 35.5008 29.6696 43.5045 29.6696C51.5081 29.6696 58 36.3093 58 44.4953Z" fill="#1ABCFE"/>
</g>
<defs>
<clipPath id="clip0_5_22">
<rect width="58" height="88.9906" fill="white"/>
</clipPath>
</defs>
</svg>
