<svg width="90" height="87" viewBox="0 0 90 87" fill="none" xmlns="http://www.w3.org/2000/svg">
<g clip-path="url(#clip0_5_19)">
<path d="M3.71916 3.7179H85.5152V83.2832H3.71916V3.7179Z" fill="url(#paint0_radial_5_19)"/>
<path d="M3.71914 3.71914H85.5152V83.2844H3.71914V3.71914ZM0 87H89.2308V0H0V87ZM52.2357 36.6203C52.2357 36.1742 52.2357 35.0962 52.0501 33.0154C52.0501 32.7191 52.125 32.6442 52.3463 32.5335C54.6128 31.6055 60.0059 29.9673 66.0272 29.9673C66.3234 29.9673 66.4734 30.0422 66.4734 30.3385V35.6923C66.4734 35.9886 66.3627 36.0635 66.0272 36.0635C63.6858 35.9529 60.2272 36.2491 58.9244 36.8059V60.2665C58.9244 60.5627 58.8138 60.7126 58.4783 60.7126H52.6461C52.3499 60.7126 52.2 60.602 52.2 60.2665V36.6203H52.2357ZM24.7241 60.7126C24.2779 60.7126 24.1673 60.527 24.1673 60.1558V20.1876C24.1673 19.8913 24.2779 19.7057 24.6134 19.7057H30.4884C30.7846 19.7057 30.8596 19.8164 30.8596 20.1519V54.5807H46.1787C46.475 54.5807 46.5892 54.6913 46.5142 55.0268L45.5862 60.3057C45.5113 60.602 45.3257 60.7519 45.0294 60.7519H24.7241V60.7126Z" fill="#AAD1EB"/>
</g>
<defs>
<radialGradient id="paint0_radial_5_19" cx="0" cy="0" r="1" gradientUnits="userSpaceOnUse" gradientTransform="translate(30.6595 21.5501) scale(62.1642 60.1863)">
<stop stop-color="#39464D" stop-opacity="0.98"/>
<stop offset="1" stop-color="#05151F"/>
</radialGradient>
<clipPath id="clip0_5_19">
<rect width="89.2308" height="87" fill="white"/>
</clipPath>
</defs>
</svg>
